<svg width="57" height="57" viewBox="0 0 57 57" fill="none" xmlns="http://www.w3.org/2000/svg">
<g clip-path="url(#clip0_1212_4409)">
<rect width="66.8201" height="72.238" fill="#1E293B"/>
<path d="M37.1718 33.8682H18.3738C16.5105 33.8682 15 35.3835 15 37.2528V37.2638C15 39.1331 16.5105 40.6485 18.3738 40.6485H37.1718C39.0351 40.6485 40.5456 39.1331 40.5456 37.2638V37.2528C40.5456 35.3835 39.0351 33.8682 37.1718 33.8682Z" fill="white"/>
<path d="M30.6566 17H24.8904C23.0271 17 21.5166 18.5153 21.5166 20.3846V20.3957C21.5166 22.265 23.0271 23.7803 24.8904 23.7803H30.6566C32.5199 23.7803 34.0304 22.265 34.0304 20.3957V20.3846C34.0304 18.5153 32.5199 17 30.6566 17Z" fill="white"/>
<path d="M33.602 25.4385H21.9411C20.0779 25.4385 18.5674 26.9538 18.5674 28.8231V28.8342C18.5674 30.7034 20.0779 32.2188 21.9411 32.2188H33.602C35.4653 32.2188 36.9758 30.7034 36.9758 28.8342V28.8231C36.9758 26.9538 35.4653 25.4385 33.602 25.4385Z" fill="white"/>
</g>
<defs>
<clipPath id="clip0_1212_4409">
<path d="M0 12.2204C0 5.47127 5.47127 0 12.2204 0H44.7796C51.5287 0 57 5.47127 57 12.2204V44.7796C57 51.5287 51.5287 57 44.7796 57H12.2204C5.47127 57 0 51.5287 0 44.7796V12.2204Z" fill="white"/>
</clipPath>
</defs>
</svg>
