<svg width="8" height="8" viewBox="0 0 8 8" fill="none" xmlns="http://www.w3.org/2000/svg">
<path fill-rule="evenodd" clip-rule="evenodd" d="M0.182898 1.31852C0.690888 0.981022 1.36286 0.783691 2.08713 0.783691C2.72156 0.783691 3.31588 0.935108 3.79499 1.19952C4.2741 0.935108 4.86841 0.783691 5.50285 0.783691C6.22751 0.783691 6.8991 0.981033 7.40708 1.31852C7.50607 1.38429 7.56556 1.49524 7.56556 1.61409V6.54791C7.56556 6.67867 7.49364 6.79884 7.37839 6.86064C7.26315 6.92244 7.12326 6.91584 7.01434 6.84347C6.63574 6.59194 6.10424 6.42722 5.50285 6.42722C4.90181 6.42722 4.36994 6.59195 3.99136 6.84347C3.87238 6.92252 3.7176 6.92252 3.59862 6.84347C3.22004 6.59195 2.68816 6.42722 2.08713 6.42722C1.48609 6.42722 0.954219 6.59195 0.57564 6.84347C0.46672 6.91584 0.326827 6.92244 0.211581 6.86064C0.0963344 6.79884 0.0244141 6.67867 0.0244141 6.54791L0.0244141 1.61409C0.0244141 1.49524 0.0839085 1.38429 0.182898 1.31852ZM0.734124 1.81437V5.96655C1.13914 5.80627 1.60137 5.71751 2.08713 5.71751C2.72156 5.71751 3.31588 5.86892 3.79499 6.13334C4.2741 5.86892 4.86841 5.71751 5.50285 5.71751C5.98883 5.71751 6.45095 5.80626 6.85585 5.96652V1.81436C6.49355 1.61734 6.02449 1.4934 5.50285 1.4934C4.90181 1.4934 4.36994 1.65814 3.99136 1.90966C3.87238 1.98871 3.7176 1.98871 3.59862 1.90966C3.22004 1.65814 2.68816 1.4934 2.08713 1.4934C1.56579 1.4934 1.09648 1.61735 0.734124 1.81437Z" fill="white"/>
<path fill-rule="evenodd" clip-rule="evenodd" d="M3.79573 1.45879C3.99171 1.45879 4.15058 1.61767 4.15058 1.81365L4.15058 6.11559C4.15058 6.31157 3.99171 6.47044 3.79573 6.47044C3.59975 6.47044 3.44087 6.31157 3.44087 6.11559L3.44087 1.81365C3.44087 1.61767 3.59975 1.45879 3.79573 1.45879Z" fill="white"/>
</svg>
