<svg width="11" height="11" viewBox="0 0 11 11" fill="none" xmlns="http://www.w3.org/2000/svg">
<g clip-path="url(#clip0_1212_4067)">
<path d="M3.04016 1.42514C3.21608 1.22945 3.20027 0.93097 3.00458 0.755045C2.80889 0.579119 2.51041 0.594933 2.33448 0.790625L1.2473 1.99838L0.810454 1.56153C0.624645 1.3777 0.324189 1.3777 0.13838 1.56153C-0.0474287 1.74537 -0.0474287 2.0478 0.13838 2.23163L0.929056 3.02231C1.02196 3.11521 1.14649 3.16463 1.27695 3.16068C1.40741 3.15672 1.52997 3.10137 1.61694 3.00452L3.04016 1.42317V1.42514ZM3.04016 4.58784C3.21608 4.39215 3.20027 4.09367 3.00458 3.91775C2.80889 3.74182 2.51041 3.75764 2.33448 3.95333L1.2473 5.16108L0.810454 4.72424C0.624645 4.53843 0.324189 4.53843 0.140357 4.72424C-0.0434754 4.91005 -0.0454521 5.2105 0.140357 5.39433L0.931032 6.18501C1.02394 6.27791 1.14847 6.32733 1.27893 6.32338C1.40939 6.31942 1.53195 6.26408 1.61892 6.16722L3.04214 4.58587L3.04016 4.58784ZM4.26966 2.37198H9.64625C9.90915 2.37198 10.1207 2.16047 10.1207 1.89757C10.1207 1.63467 9.90915 1.42317 9.64625 1.42317L4.26966 1.42317C4.00676 1.42317 3.79525 1.63467 3.79525 1.89757C3.79525 2.16047 4.00676 2.37198 4.26966 2.37198ZM3.79525 5.06027C3.79525 5.32317 4.00676 5.53468 4.26966 5.53468H9.64625C9.90915 5.53468 10.1207 5.32317 10.1207 5.06027C10.1207 4.79737 9.90915 4.58587 9.64625 4.58587L4.26966 4.58587C4.00676 4.58587 3.79525 4.79737 3.79525 5.06027ZM3.16271 8.22298C3.16271 8.48588 3.37422 8.69738 3.63712 8.69738H9.64625C9.90915 8.69738 10.1207 8.48588 10.1207 8.22298C10.1207 7.96008 9.90915 7.74857 9.64625 7.74857H3.63712C3.37422 7.74857 3.16271 7.96008 3.16271 8.22298ZM1.89763 8.22298C1.89763 8.05522 1.83099 7.89433 1.71237 7.7757C1.59374 7.65708 1.43285 7.59044 1.26509 7.59044C1.09733 7.59044 0.936443 7.65708 0.817819 7.7757C0.699195 7.89433 0.632552 8.05522 0.632552 8.22298C0.632552 8.39074 0.699195 8.55162 0.817819 8.67025C0.936443 8.78887 1.09733 8.85552 1.26509 8.85552C1.43285 8.85552 1.59374 8.78887 1.71237 8.67025C1.83099 8.55162 1.89763 8.39074 1.89763 8.22298Z" fill="white"/>
</g>
<defs>
<clipPath id="clip0_1212_4067">
<rect width="10.1206" height="10.1206" fill="white"/>
</clipPath>
</defs>
</svg>
