<svg width="8" height="8" viewBox="0 0 8 8" fill="none" xmlns="http://www.w3.org/2000/svg">
<path d="M0 1.42342C0 0.900092 0.425482 0.474609 0.948811 0.474609H2.90722C3.19038 0.474609 3.46168 0.587281 3.66182 0.78742L4.29782 1.42342H6.64167C7.165 1.42342 7.59049 1.8489 7.59049 2.37223V6.16747C7.59049 6.6908 7.165 7.11628 6.64167 7.11628H0.948811C0.425482 7.11628 0 6.6908 0 6.16747L0 1.42342ZM0.948811 1.18622C0.818349 1.18622 0.711608 1.29296 0.711608 1.42342V6.16747C0.711608 6.29793 0.818349 6.40468 0.948811 6.40468H6.64167C6.77214 6.40468 6.87888 6.29793 6.87888 6.16747V2.37223C6.87888 2.24177 6.77214 2.13503 6.64167 2.13503H4.24889C4.09175 2.13503 3.94053 2.07276 3.82934 1.96157L3.15924 1.28999C3.09253 1.22328 3.0021 1.18622 2.90722 1.18622H0.948811Z" fill="white"/>
</svg>
