<svg width="13" height="13" viewBox="0 0 13 13" fill="none" xmlns="http://www.w3.org/2000/svg">
<path d="M11.5619 6.27715C11.5619 5.8774 11.526 5.49302 11.4594 5.12402H6.1499V7.30727H9.1839C9.05065 8.0094 8.6509 8.6039 8.05128 9.00365V10.4233H9.8809C10.9469 9.43927 11.5619 7.99402 11.5619 6.27715Z" fill="#4285F4"/>
<path d="M6.14994 11.7873C7.67206 11.7873 8.94819 11.2851 9.88094 10.4241L8.05131 9.00445C7.54906 9.3427 6.90844 9.5477 6.14994 9.5477C4.68419 9.5477 3.43881 8.55857 2.99294 7.22607H1.11719V8.68157C2.04481 10.5214 3.94619 11.7873 6.14994 11.7873Z" fill="#34A853"/>
<path d="M2.99271 7.22031C2.87996 6.88206 2.81333 6.52331 2.81333 6.14918C2.81333 5.77506 2.87996 5.41631 2.99271 5.07806V3.62256H1.11696C0.732582 4.38106 0.512207 5.23693 0.512207 6.14918C0.512207 7.06143 0.732582 7.91731 1.11696 8.67581L2.57758 7.53806L2.99271 7.22031Z" fill="#FBBC05"/>
<path d="M6.14994 2.75647C6.98019 2.75647 7.71819 3.04347 8.30756 3.59697L9.92194 1.98259C8.94306 1.07034 7.67206 0.511719 6.14994 0.511719C3.94619 0.511719 2.04481 1.77759 1.11719 3.62259L2.99294 5.07809C3.43881 3.74559 4.68419 2.75647 6.14994 2.75647Z" fill="#EA4335"/>
</svg>
