<svg width="8" height="8" viewBox="0 0 8 8" fill="none" xmlns="http://www.w3.org/2000/svg">
<path d="M2.08738 2.27724C2.08738 1.96295 2.34238 1.70796 2.65667 1.70796C2.97096 1.70796 3.22596 1.96295 3.22596 2.27724V2.37094C3.22596 2.69709 3.19868 3.02325 3.14294 3.34466L1.8739 3.73723C1.43626 3.87243 1.13857 4.27686 1.13857 4.73466V5.12368H0.284643C0.126903 5.12368 0 5.25058 0 5.40832C0 5.56606 0.126903 5.69296 0.284643 5.69296H1.14213C1.17771 6.11756 1.5347 6.45201 1.96878 6.45201C2.26054 6.45201 2.53095 6.29902 2.68039 6.04877L2.86897 5.73566C3.22003 5.14977 3.47502 4.51051 3.62327 3.84397L3.63513 3.78823L4.94923 3.38142L4.66578 4.17368C4.63494 4.26144 4.64799 4.35751 4.70136 4.43342C4.75473 4.50932 4.84131 4.55439 4.93382 4.55439H6.54679C6.70453 4.55439 6.83144 4.42749 6.83144 4.26975C6.83144 4.11201 6.70453 3.9851 6.54679 3.9851H5.33825L5.67626 3.03748C5.71303 2.93548 5.68812 2.82281 5.6134 2.74453C5.53868 2.66626 5.4272 2.63779 5.32401 2.66982L3.74662 3.15845C3.77864 2.89753 3.79524 2.63423 3.79524 2.37094V2.27724C3.79524 1.64866 3.28526 1.13867 2.65667 1.13867C2.02808 1.13867 1.5181 1.64866 1.5181 2.27724V2.75165C1.5181 2.90939 1.645 3.03629 1.80274 3.03629C1.96048 3.03629 2.08738 2.90939 2.08738 2.75165V2.27724ZM2.04231 4.28161L3.0018 3.9851C2.86304 4.49746 2.65311 4.98729 2.38033 5.4439L2.19175 5.75701C2.14431 5.83528 2.06011 5.88391 1.96878 5.88391C1.82527 5.88391 1.70786 5.76768 1.70786 5.62299V4.73585C1.70786 4.5283 1.84306 4.34447 2.04231 4.28279V4.28161ZM3.54499 5.69296H7.30584C7.46358 5.69296 7.59049 5.56606 7.59049 5.40832C7.59049 5.25058 7.46358 5.12368 7.30584 5.12368H3.81303C3.73238 5.317 3.64343 5.50676 3.54499 5.69296Z" fill="white"/>
</svg>
