<svg width="9" height="9" viewBox="0 0 9 9" fill="none" xmlns="http://www.w3.org/2000/svg">
<path d="M7.59046 4.39184C7.66594 4.31957 7.70931 4.21838 7.70931 4.11238C7.70931 4.00639 7.66594 3.90681 7.59046 3.83293L4.76379 1.13475C4.60961 0.986993 4.36549 0.993417 4.21934 1.1476C4.07319 1.30178 4.07801 1.5459 4.23219 1.69205L6.36182 3.72693H0.899614C0.686009 3.72693 0.51416 3.89878 0.51416 4.11238C0.51416 4.32599 0.686009 4.49784 0.899614 4.49784H6.36182L4.23058 6.53111C4.0764 6.67887 4.07158 6.92138 4.21773 7.07557C4.36389 7.22975 4.60801 7.23457 4.76219 7.08841L7.58885 4.39023L7.59046 4.39184Z" fill="white"/>
</svg>
