<svg width="14" height="14" viewBox="0 0 14 14" fill="none" xmlns="http://www.w3.org/2000/svg">
<path d="M6.83274 2.65744C5.28575 2.65744 4.01399 3.35976 3.03882 4.26375C2.12533 5.11317 1.4942 6.12156 1.17151 6.83337C1.4942 7.54517 2.12533 8.55357 3.03644 9.40299C4.01399 10.307 5.28575 11.0093 6.83274 11.0093C8.37973 11.0093 9.65149 10.307 10.6267 9.40299C11.5401 8.55357 12.1713 7.54517 12.494 6.83337C12.1713 6.12156 11.5401 5.11317 10.629 4.26375C9.65149 3.35976 8.37973 2.65744 6.83274 2.65744ZM2.26295 3.43094C3.38048 2.3917 4.91561 1.51855 6.83274 1.51855C8.74987 1.51855 10.285 2.3917 11.4025 3.43094C12.5129 4.46306 13.2556 5.69448 13.6091 6.54153C13.6874 6.72897 13.6874 6.93777 13.6091 7.12521C13.2556 7.97226 12.5129 9.20605 11.4025 10.2358C10.285 11.275 8.74987 12.1482 6.83274 12.1482C4.91561 12.1482 3.38048 11.275 2.26295 10.2358C1.15253 9.20605 0.409881 7.97226 0.058724 7.12521C-0.0195747 6.93777 -0.0195747 6.72897 0.058724 6.54153C0.409881 5.69448 1.15253 4.46068 2.26295 3.43094ZM6.83274 8.73152C7.88147 8.73152 8.73089 7.8821 8.73089 6.83337C8.73089 5.78464 7.88147 4.93522 6.83274 4.93522C6.81613 4.93522 6.8019 4.93522 6.78529 4.93522C6.81613 5.05623 6.83274 5.18435 6.83274 5.31485C6.83274 6.15241 6.15178 6.83337 5.31422 6.83337C5.18372 6.83337 5.0556 6.81676 4.93459 6.78592C4.93459 6.80252 4.93459 6.81676 4.93459 6.83337C4.93459 7.8821 5.78401 8.73152 6.83274 8.73152ZM6.83274 3.79633C7.63821 3.79633 8.41069 4.1163 8.98025 4.68586C9.5498 5.25541 9.86978 6.0279 9.86978 6.83337C9.86978 7.63884 9.5498 8.41132 8.98025 8.98088C8.41069 9.55043 7.63821 9.87041 6.83274 9.87041C6.02727 9.87041 5.25479 9.55043 4.68523 8.98088C4.11568 8.41132 3.7957 7.63884 3.7957 6.83337C3.7957 6.0279 4.11568 5.25541 4.68523 4.68586C5.25479 4.1163 6.02727 3.79633 6.83274 3.79633Z" fill="white"/>
</svg>
