<svg width="8" height="8" viewBox="0 0 8 8" fill="none" xmlns="http://www.w3.org/2000/svg">
<path d="M6.683 2.12842C6.75943 2.24965 6.76734 2.39856 6.71331 2.52507C6.66192 2.64631 6.56703 2.72011 6.44843 2.73592C6.42208 2.73987 6.39704 2.74119 6.372 2.74119C6.21782 2.74119 6.07945 2.67398 5.98062 2.56724C5.8607 2.43546 5.6907 2.36035 5.51148 2.36035C5.33226 2.36035 5.16227 2.43678 5.04367 2.56856C4.94747 2.6753 4.81042 2.74251 4.6536 2.74251C4.4981 2.74251 4.35973 2.6753 4.26353 2.56856C4.14361 2.43546 3.97362 2.36035 3.7944 2.36035C3.61518 2.36035 3.44518 2.43546 3.32526 2.56856C3.22907 2.6753 3.09201 2.74251 2.9352 2.74251C2.7797 2.74251 2.64133 2.6753 2.54513 2.56856C2.42521 2.43546 2.25522 2.36035 2.076 2.36035C1.89678 2.36035 1.72678 2.43546 1.60686 2.56856C1.51066 2.6753 1.37361 2.74251 1.2168 2.74251C1.19308 2.74251 1.16672 2.74119 1.14036 2.73724C1.02308 2.72142 0.929517 2.64763 0.878123 2.52639C0.824094 2.39988 0.832001 2.25097 0.908433 2.12973L1.5871 1.05442H6.00434L6.683 2.12842ZM6.372 3.37373C6.42603 3.37373 6.47874 3.36978 6.53014 3.36319C7.26151 3.26567 7.60809 2.40779 7.21671 1.78974L6.46161 0.594506C6.3944 0.487765 6.27448 0.421875 6.14666 0.421875H1.44477C1.31695 0.421875 1.19703 0.487765 1.12982 0.594506L0.373409 1.78974C-0.016658 2.40647 0.328604 3.26435 1.05734 3.36319C1.11005 3.36978 1.16408 3.37373 1.2168 3.37373C1.47508 3.37373 1.71097 3.28939 1.90073 3.14971C1.96398 3.10358 2.02197 3.04955 2.07468 2.99289C2.12739 3.05087 2.18537 3.10358 2.24863 3.14971C2.43971 3.28939 2.67559 3.37373 2.93388 3.37373C3.19217 3.37373 3.42805 3.28939 3.61913 3.14971C3.68239 3.10358 3.74037 3.04955 3.79308 2.99157C3.84579 3.04955 3.90378 3.10227 3.96703 3.14839C4.15811 3.28807 4.39399 3.37241 4.65228 3.37241C4.9132 3.37241 5.15041 3.28676 5.34149 3.14443C5.40342 3.09831 5.46009 3.04692 5.51148 2.99025C5.56288 3.04692 5.62086 3.09963 5.6828 3.14575C5.87388 3.28676 6.11108 3.37241 6.37068 3.37241L6.372 3.37373ZM1.4764 4.84966V3.77434C1.39206 3.78884 1.30641 3.79542 1.21811 3.79542C1.14564 3.79542 1.07316 3.79015 1.00331 3.78093H1.002C0.947966 3.77302 0.895255 3.7638 0.843861 3.75062V4.84966V5.4822V6.32559C0.843861 6.79077 1.22207 7.16897 1.68725 7.16897H5.90418C6.36937 7.16897 6.74757 6.79077 6.74757 6.32559V5.4822V4.84966V3.75062C6.69486 3.7638 6.64215 3.77434 6.58548 3.78093C6.58548 3.78093 6.58548 3.78093 6.58417 3.78093C6.51432 3.79015 6.44316 3.79542 6.37068 3.79542C6.28371 3.79542 6.19805 3.78884 6.11503 3.77434V4.84966H1.4764ZM6.11503 5.4822V6.32559C6.11503 6.44155 6.02015 6.53643 5.90418 6.53643H1.68725C1.57128 6.53643 1.4764 6.44155 1.4764 6.32559V5.4822H6.11503Z" fill="white"/>
</svg>
