<svg width="8" height="8" viewBox="0 0 8 8" fill="none" xmlns="http://www.w3.org/2000/svg">
<path d="M5.09978 0.948811H5.69278C6.21611 0.948811 6.64159 1.37429 6.64159 1.89762V6.64167C6.64159 7.165 6.21611 7.59049 5.69278 7.59049H1.89754C1.37421 7.59049 0.94873 7.165 0.94873 6.64167V1.89762C0.94873 1.37429 1.37421 0.948811 1.89754 0.948811H2.49055H2.63287C2.74258 0.407692 3.22143 0 3.79516 0C4.3689 0 4.84775 0.407692 4.95746 0.948811H5.09978ZM1.89754 1.66042C1.76708 1.66042 1.66034 1.76716 1.66034 1.89762V6.64167C1.66034 6.77214 1.76708 6.87888 1.89754 6.87888H5.69278C5.82325 6.87888 5.92999 6.77214 5.92999 6.64167V1.89762C5.92999 1.76716 5.82325 1.66042 5.69278 1.66042H5.45558V2.01622C5.45558 2.2134 5.29695 2.37203 5.09978 2.37203H3.79516H2.49055C2.29337 2.37203 2.13474 2.2134 2.13474 2.01622V1.66042H1.89754ZM3.79516 1.54182C3.88953 1.54182 3.98003 1.50433 4.04675 1.4376C4.11348 1.37088 4.15097 1.28038 4.15097 1.18601C4.15097 1.09165 4.11348 1.00115 4.04675 0.934422C3.98003 0.867696 3.88953 0.830209 3.79516 0.830209C3.7008 0.830209 3.6103 0.867696 3.54357 0.934422C3.47684 1.00115 3.43936 1.09165 3.43936 1.18601C3.43936 1.28038 3.47684 1.37088 3.54357 1.4376C3.6103 1.50433 3.7008 1.54182 3.79516 1.54182Z" fill="white"/>
</svg>
