<svg width="8" height="8" viewBox="0 0 8 8" fill="none" xmlns="http://www.w3.org/2000/svg">
<g clip-path="url(#clip0_1212_4061)">
<path d="M6.7471 1.4758C6.86306 1.4758 6.95795 1.57068 6.95795 1.68665V2.10834H0.63254V1.68665C0.63254 1.57068 0.727422 1.4758 0.843387 1.4758H6.7471ZM6.95795 2.84633V5.90359C6.95795 6.01955 6.86306 6.11443 6.7471 6.11443H0.843387C0.727422 6.11443 0.63254 6.01955 0.63254 5.90359V2.84633L3.79524 2.84633L6.95795 2.84633ZM0.843387 0.843262C0.378207 0.843262 0 1.22147 0 1.68665L0 5.90359C0 6.36877 0.378207 6.74697 0.843387 6.74697H6.7471C7.21228 6.74697 7.59049 6.36877 7.59049 5.90359V1.68665C7.59049 1.22147 7.21228 0.843262 6.7471 0.843262H0.843387ZM1.58135 4.84935C1.40608 4.84935 1.26508 4.99036 1.26508 5.16562C1.26508 5.34089 1.40608 5.48189 1.58135 5.48189H2.21389C2.38916 5.48189 2.53016 5.34089 2.53016 5.16562C2.53016 4.99036 2.38916 4.84935 2.21389 4.84935H1.58135Z" fill="white"/>
</g>
<defs>
<clipPath id="clip0_1212_4061">
<rect width="7.59049" height="7.59049" fill="white"/>
</clipPath>
</defs>
</svg>
