<svg width="8" height="8" viewBox="0 0 8 8" fill="none" xmlns="http://www.w3.org/2000/svg">
<path d="M2.37203 5.45566C2.76489 5.45566 3.08363 5.7744 3.08363 6.16727V6.40447L4.15846 5.59798C4.28151 5.50607 4.43124 5.45566 4.58542 5.45566H6.64167C6.77214 5.45566 6.87888 5.34892 6.87888 5.21846V0.948811C6.87888 0.818349 6.77214 0.711608 6.64167 0.711608H0.948811C0.818349 0.711608 0.711608 0.818349 0.711608 0.948811V5.21846C0.711608 5.34892 0.818349 5.45566 0.948811 5.45566H2.37203ZM3.08363 7.29398L3.08067 7.29695L3.00506 7.35328L2.75155 7.54304C2.68039 7.59642 2.58403 7.60531 2.50249 7.56528C2.42095 7.52525 2.37203 7.44372 2.37203 7.35328V7.03751V6.94263V6.93818V6.87888V6.16727H1.66042H0.948811C0.425482 6.16727 0 5.74179 0 5.21846L0 0.948811C0 0.425482 0.425482 0 0.948811 0L6.64167 0C7.165 0 7.59049 0.425482 7.59049 0.948811V5.21846C7.59049 5.74179 7.165 6.16727 6.64167 6.16727H4.58542L3.08363 7.29398Z" fill="white"/>
</svg>
