<svg width="24" height="24" viewBox="0 0 24 24" fill="none" xmlns="http://www.w3.org/2000/svg">
<path d="M15.1461 3.60986H8.85361C5.95801 3.60986 3.60986 5.95801 3.60986 8.85361V15.1461C3.60986 18.0417 5.95801 20.3899 8.85361 20.3899H15.1461C18.0417 20.3899 20.3899 18.0417 20.3899 15.1461V8.85361C20.3899 5.95801 18.0417 3.60986 15.1461 3.60986ZM18.8167 15.1461C18.8167 17.1702 17.1702 18.8167 15.1461 18.8167H8.85361C6.82952 18.8167 5.18299 17.1702 5.18299 15.1461V8.85361C5.18299 6.82952 6.82952 5.18299 8.85361 5.18299H15.1461C17.1702 5.18299 18.8167 6.82952 18.8167 8.85361V15.1461Z" fill="#101010"/>
<path d="M11.9982 7.80811C9.68153 7.80811 7.80322 9.68642 7.80322 12.0031C7.80322 14.3198 9.68153 16.1981 11.9982 16.1981C14.3149 16.1981 16.1932 14.3198 16.1932 12.0031C16.1932 9.68642 14.3149 7.80811 11.9982 7.80811ZM11.9982 14.625C10.553 14.625 9.37635 13.4483 9.37635 12.0031C9.37635 10.5569 10.553 9.38123 11.9982 9.38123C13.4434 9.38123 14.6201 10.5569 14.6201 12.0031C14.6201 13.4483 13.4434 14.625 11.9982 14.625Z" fill="#101010"/>
<path d="M16.5106 8.05204C16.8194 8.05204 17.0696 7.80178 17.0696 7.49306C17.0696 7.18435 16.8194 6.93408 16.5106 6.93408C16.2019 6.93408 15.9517 7.18435 15.9517 7.49306C15.9517 7.80178 16.2019 8.05204 16.5106 8.05204Z" fill="#101010"/>
</svg>
