<svg width="20" height="20" viewBox="0 0 20 20" fill="none" xmlns="http://www.w3.org/2000/svg">
<path d="M8.875 1.875H4.5C4.15625 1.875 3.875 2.15625 3.875 2.5V17.5C3.875 17.8438 4.15625 18.125 4.5 18.125H14.5C14.8438 18.125 15.125 17.8438 15.125 17.5V8.125H11.6875C10.1328 8.125 8.875 6.86719 8.875 5.3125V1.875ZM14.3477 6.25L10.75 2.65234V5.3125C10.75 5.83203 11.168 6.25 11.6875 6.25H14.3477ZM2 2.5C2 1.12109 3.12109 0 4.5 0H9.71484C10.3789 0 11.0156 0.261719 11.4844 0.730469L16.2695 5.51953C16.7383 5.98828 17 6.625 17 7.28906V17.5C17 18.8789 15.8789 20 14.5 20H4.5C3.12109 20 2 18.8789 2 17.5V2.5ZM5.125 4.0625C5.125 3.54297 5.54297 3.125 6.0625 3.125H6.6875C7.20703 3.125 7.625 3.54297 7.625 4.0625C7.625 4.58203 7.20703 5 6.6875 5H6.0625C5.54297 5 5.125 4.58203 5.125 4.0625ZM5.125 7.1875C5.125 6.66797 5.54297 6.25 6.0625 6.25H6.6875C7.20703 6.25 7.625 6.66797 7.625 7.1875C7.625 7.70703 7.20703 8.125 6.6875 8.125H6.0625C5.54297 8.125 5.125 7.70703 5.125 7.1875ZM9.65625 9.0625C10.0859 9.0625 10.4375 9.41406 10.4375 9.84375V10H10.75C11.1797 10 11.5312 10.3516 11.5312 10.7812C11.5312 11.2109 11.1797 11.5625 10.75 11.5625H9.05469C8.87109 11.5625 8.71875 11.7109 8.71875 11.8984C8.71875 12.0586 8.83203 12.1953 8.98828 12.2266L10.3203 12.4922C11.207 12.668 11.8438 13.4492 11.8438 14.3516C11.8438 15.2305 11.2461 15.9687 10.4375 16.1836V16.4023C10.4375 16.832 10.0859 17.1836 9.65625 17.1836C9.22656 17.1836 8.875 16.832 8.875 16.4023V16.2461H8.25C7.82031 16.2461 7.46875 15.8945 7.46875 15.4648C7.46875 15.0352 7.82031 14.6836 8.25 14.6836H9.94531C10.1289 14.6836 10.2812 14.5352 10.2812 14.3477C10.2812 14.1875 10.168 14.0508 10.0117 14.0195L8.67969 13.7578C7.79297 13.582 7.15625 12.8008 7.15625 11.8984C7.15625 10.9102 7.91016 10.0977 8.875 10.0078V9.84375C8.875 9.41406 9.22656 9.0625 9.65625 9.0625Z" fill="#212B36"/>
</svg>
