<svg width="200" height="38" viewBox="0 0 200 38" fill="none" xmlns="http://www.w3.org/2000/svg">
<path d="M49.1514 30.207H46.1024L56.1957 5.67476H59.1746L69.3029 30.207H66.2539L63.3801 23.1978H52.0252L49.1514 30.207ZM57.7026 9.4247L53.1466 20.5343H62.2586L57.7026 9.4247ZM78.5471 30.5925C74.1313 30.5925 70.872 28.2795 70.6267 24.3543H73.4654C73.6757 26.7725 75.8836 28.1043 78.6873 28.1043C81.3158 28.1043 82.5774 27.0879 82.5774 25.2305C82.5774 23.4782 81.2106 23.0927 79.2831 22.4268L76.5845 21.5156C73.851 20.6044 71.1174 19.7633 71.1174 16.3989C71.1174 13.2447 73.5706 11.212 77.6359 11.212C81.7363 11.212 84.5751 13.42 85.0307 17.5554H82.1919C81.8765 14.962 80.0541 13.7003 77.5308 13.7003C75.2528 13.7003 73.921 14.7167 73.921 16.3288C73.921 18.2563 75.9537 18.6418 77.4957 19.1675L80.0191 20.0086C83.4185 21.1301 85.4512 22.2866 85.4512 25.3707C85.4512 28.63 83.0681 30.5925 78.5471 30.5925ZM94.9161 30.5925C90.5003 30.5925 87.241 28.2795 86.9957 24.3543H89.8344C90.0447 26.7725 92.2526 28.1043 95.0563 28.1043C97.6848 28.1043 98.9464 27.0879 98.9464 25.2305C98.9464 23.4782 97.5796 23.0927 95.6521 22.4268L92.9535 21.5156C90.2199 20.6044 87.4863 19.7633 87.4863 16.3989C87.4863 13.2447 89.9396 11.212 94.0049 11.212C98.1053 11.212 100.944 13.42 101.4 17.5554H98.5609C98.2455 14.962 96.4231 13.7003 93.8998 13.7003C91.6218 13.7003 90.29 14.7167 90.29 16.3288C90.29 18.2563 92.3227 18.6418 93.8647 19.1675L96.3881 20.0086C99.7875 21.1301 101.82 22.2866 101.82 25.3707C101.82 28.63 99.4371 30.5925 94.9161 30.5925ZM112.547 30.5925C107.045 30.5925 103.4 26.5622 103.4 20.9899C103.4 14.6466 107.5 11.212 112.196 11.212C117.313 11.212 120.607 14.6466 120.713 20.6044V21.4105H106.309C106.484 25.3707 108.797 28.0692 112.547 28.0692C115.14 28.0692 117.033 26.7725 117.804 24.3543H120.642C119.801 28.1744 116.787 30.5925 112.547 30.5925ZM106.484 18.9923H117.663C117.138 15.733 115.175 13.7354 112.196 13.7354C109.252 13.7354 107.08 15.6629 106.484 18.9923ZM126.396 30.207H123.487V11.6326H125.8L126.081 14.5064C127.342 12.5088 129.76 11.212 132.424 11.212C135.228 11.212 137.33 12.6489 138.277 14.8919C139.468 12.719 142.027 11.212 144.865 11.212C148.79 11.212 151.314 13.9807 151.314 17.7657V30.207H148.405V17.8708C148.405 15.3825 146.863 13.7704 144.375 13.7704C140.905 13.7704 138.872 16.0835 138.837 18.9222V30.207H135.964V17.8708C135.964 15.3825 134.422 13.7704 131.933 13.7704C128.464 13.7704 126.431 16.0835 126.396 18.9222V30.207ZM164.345 30.5925C161.296 30.5925 158.808 29.0856 157.546 26.6674L157.231 30.207H154.917V3.92246H157.826V14.5414C159.193 12.5088 161.541 11.212 164.345 11.212C169.251 11.212 172.686 15.1372 172.686 20.8147C172.686 26.5973 169.251 30.5925 164.345 30.5925ZM163.889 28.0692C167.324 28.0692 169.672 25.0903 169.672 20.8147C169.672 16.6442 167.324 13.7354 163.854 13.7354C160.35 13.7354 157.826 16.5741 157.826 20.6745C157.826 25.0202 160.35 28.0692 163.889 28.0692ZM178.473 30.207H175.565V3.92246H178.473V30.207ZM184.523 37.2162H181.544V34.763H184.523C186.415 34.763 187.221 34.0971 187.642 32.9757L188.658 30.207H187.957L180.598 11.6326H183.717L189.745 27.2982L195.562 11.6326H198.541L190.2 34.0971C189.429 36.1298 187.712 37.2162 184.523 37.2162Z" fill="#101010"/>
<path d="M35.3267 25.0508V30.9173C35.3267 32.9918 33.6156 34.6745 31.5045 34.6745H1.10002C0.163884 34.6745 -0.305361 33.5616 0.356757 32.9109L7.48364 25.9083C8.04227 25.3594 8.80083 25.0508 9.59113 25.0508H35.3291H35.3267Z" fill="#101010"/>
<path d="M35.3296 11.8018V17.6671C35.3296 19.7416 33.6184 21.4244 31.5062 21.4244H12.0508L20.9711 12.6593C21.5298 12.1103 22.2872 11.8018 23.0775 11.8018H35.3308H35.3296Z" fill="#101010"/>
<path d="M35.3293 1.04276V4.41634C35.3293 6.49087 33.6182 8.17361 31.506 8.17361H25.5352L33.5347 0.31234C34.1968 -0.338336 35.3293 0.1228 35.3293 1.04276Z" fill="#101010"/>
</svg>
