<svg width="24" height="24" viewBox="0 0 24 24" fill="none" xmlns="http://www.w3.org/2000/svg">
<g clip-path="url(#clip0_1212_4125)">
<path d="M19.7443 7.10283C19.1379 6.38194 18.0182 6.08789 15.88 6.08789H8.11811C5.93091 6.08789 4.7923 6.40091 4.18815 7.1684C3.59912 7.91671 3.59912 9.01927 3.59912 10.5453V13.4538C3.59912 16.4101 4.298 17.9111 8.11811 17.9111H15.88C17.7343 17.9111 18.7618 17.6516 19.4266 17.0154C20.1083 16.363 20.3991 15.2979 20.3991 13.4538V10.5453C20.3991 8.93598 20.3535 7.82691 19.7443 7.10283ZM14.3848 12.4011L10.8601 14.2432C10.7813 14.2843 10.6952 14.3048 10.6091 14.3048C10.5117 14.3048 10.4144 14.2785 10.3283 14.2264C10.1662 14.1282 10.0672 13.9524 10.0672 13.7628V10.0905C10.0672 9.90122 10.1659 9.72563 10.3277 9.62733C10.4896 9.52902 10.6909 9.5223 10.8589 9.60955L14.3835 11.4398C14.5629 11.5329 14.6755 11.718 14.6757 11.92C14.676 12.1221 14.5638 12.3075 14.3848 12.4011Z" fill="#101010"/>
</g>
<defs>
<clipPath id="clip0_1212_4125">
<rect width="24" height="24" fill="white"/>
</clipPath>
</defs>
</svg>
